# xmcd CD database file
#
# Track frame offsets:
#	150
#	15040
#	44985
#	66699
#	95971
#	127183
#	161295
#	179910
#	204865
#	236313
#	265175
#
# Disc length: 3760 seconds
#
# Revision: 0
# Processed by: cddbd v1.4PL0 Copyright (c) Steve Scherf et al.
# Submitted via: CDex 1.50beta9
#
DISCID=a00eae0b
DTITLE=Taylor Eigsti Trio - Resonance
DYEAR=2002
DGENRE=Jazz
TTITLE0=Juliette
TTITLE1=Somewhere
TTITLE2=Cubano Chant
TTITLE3=Angel Eyes
TTITLE4=Avolation
TTITLE5=Things Ain't What They Used To Be
TTITLE6=Got A Match?
TTITLE7=Uncle Smith
TTITLE8=Love Dance
TTITLE9=Introspection
TTITLE10=Oleo
EXTD=YEAR: 2002
EXTT0=
EXTT1=
EXTT2=
EXTT3=
EXTT4=
EXTT5=
EXTT6=
EXTT7=
EXTT8=
EXTT9=
EXTT10=
PLAYORDER=
